<svg width="49" height="50" viewBox="0 0 49 50" fill="none" xmlns="http://www.w3.org/2000/svg">
<rect x="0.0196533" y="0.90979" width="48.743" height="48.743" rx="24.3715" fill="#F79D4B"/>
<path d="M34.1343 25.2812C34.1343 24.5121 33.5108 23.8885 32.7416 23.8885H25.7784V16.9253C25.7784 16.1561 25.1548 15.5326 24.3857 15.5326C23.6165 15.5326 22.993 16.1561 22.993 16.9253V23.8885H16.0297C15.2606 23.8885 14.6371 24.5121 14.6371 25.2812C14.6371 26.0503 15.2606 26.6739 16.0297 26.6739H22.993V33.6371C22.993 34.4063 23.6165 35.0298 24.3857 35.0298C25.1548 35.0298 25.7784 34.4063 25.7784 33.6371V26.6739H32.7416C33.5108 26.6739 34.1343 26.0503 34.1343 25.2812Z" fill="white"/>
</svg>
